<svg width="42" height="42" viewBox="0 0 42 42" fill="none" xmlns="http://www.w3.org/2000/svg">
<path d="M12.25 19.5C11.4216 19.5 10.75 20.1716 10.75 21C10.75 21.8284 11.4216 22.5 12.25 22.5L12.25 19.5ZM29.75 22.5C30.5784 22.5 31.25 21.8284 31.25 21C31.25 20.1716 30.5784 19.5 29.75 19.5V22.5ZM22.5 12.25C22.5 11.4216 21.8284 10.75 21 10.75C20.1716 10.75 19.5 11.4216 19.5 12.25H22.5ZM19.5 29.75C19.5 30.5784 20.1716 31.25 21 31.25C21.8284 31.25 22.5 30.5784 22.5 29.75H19.5ZM12.25 22.5L21 22.5V19.5L12.25 19.5L12.25 22.5ZM21 22.5L29.75 22.5V19.5L21 19.5V22.5ZM19.5 12.25V21H22.5V12.25H19.5ZM19.5 21L19.5 29.75H22.5L22.5 21H19.5Z" fill="white"/>
</svg>
