<svg width="35" height="35" viewBox="0 0 35 35" fill="none" xmlns="http://www.w3.org/2000/svg">
<path d="M29.7317 10.438L17.5 17.5L5.26345 10.4267" stroke="white" stroke-width="2" stroke-linecap="round" stroke-linejoin="round"/>
<path d="M17.5 17.5V30.625" stroke="white" stroke-width="2" stroke-linecap="round" stroke-linejoin="round"/>
<path d="M16.5 3.49401C17.1188 3.13674 17.8812 3.13674 18.5 3.49401L29.1295 9.63097C29.7483 9.98824 30.1295 10.6485 30.1295 11.363V23.637C30.1295 24.3515 29.7483 25.0117 29.1295 25.369L18.5 31.506C17.8812 31.8632 17.1188 31.8632 16.5 31.506L5.87046 25.369C5.25166 25.0117 4.87046 24.3515 4.87046 23.637V11.363C4.87046 10.6485 5.25166 9.98824 5.87046 9.63097L16.5 3.49401Z" stroke="white" stroke-width="2" stroke-linecap="round" stroke-linejoin="round"/>
<path d="M12.3958 6.5625L23.3333 13.125" stroke="white" stroke-width="2" stroke-linecap="round" stroke-linejoin="round"/>
</svg>
