<svg width="35" height="35" viewBox="0 0 35 35" fill="none" xmlns="http://www.w3.org/2000/svg">
<path d="M8.45777 8.91158L7.95777 9.77761L7.95777 9.77761L8.45777 8.91158ZM7.09175 9.27761L6.22572 8.77761L7.09175 9.27761ZM5.17508 12.5974L6.04111 13.0974H6.04111L5.17508 12.5974ZM5.54111 13.9634L5.04111 14.8294H5.04111L5.54111 13.9634ZM5.54111 21.0366L6.04111 21.9026H6.04111L5.54111 21.0366ZM5.17508 22.4026L6.04111 21.9026H6.04111L5.17508 22.4026ZM7.09175 25.7224L7.95777 25.2224L7.95777 25.2224L7.09175 25.7224ZM8.45777 26.0884L8.95777 26.9544H8.95777L8.45777 26.0884ZM26.5422 26.0884L26.0422 26.9544L26.5422 26.0884ZM27.9082 25.7224L27.0422 25.2224L27.9082 25.7224ZM29.8249 22.4026L30.6909 22.9026H30.6909L29.8249 22.4026ZM29.4589 21.0366L28.9589 21.9026L29.4589 21.0366ZM29.4589 13.9634L29.9589 14.8294L29.4589 13.9634ZM29.8249 12.5974L30.6909 12.0974L29.8249 12.5974ZM27.9083 9.27761L27.0422 9.77761L27.9083 9.27761ZM26.5422 8.91158L27.0422 9.77761V9.77761L26.5422 8.91158ZM21.0731 9.51042L20.6643 10.4231L21.0731 9.51042ZM26.7158 15.5471L27.2158 16.4132L26.7158 15.5471ZM22.6307 24.5887L23.2177 25.3982L22.6307 24.5887ZM23.7988 24.5045L24.2988 23.6385L23.7988 24.5045ZM26.7158 19.4528L26.2158 20.3189L26.7158 19.4528ZM26.2042 18.4007L25.2094 18.299L26.2042 18.4007ZM13.9269 25.4896L13.5181 26.4022L13.9269 25.4896ZM11.2012 24.5045L10.7012 23.6385L11.2012 24.5045ZM12.3693 24.5887L11.7823 25.3982L12.3693 24.5887ZM21.0731 25.4896L20.6643 24.5769L21.0731 25.4896ZM8.7958 18.4007L7.80098 18.5025L8.7958 18.4007ZM8.28422 19.4528L8.78422 20.3189L8.28422 19.4528ZM8.28422 15.5471L8.78422 14.6811L8.28422 15.5471ZM12.3693 10.4113L11.7823 9.60175L12.3693 10.4113ZM11.2012 10.4955L11.7012 9.62946L11.2012 10.4955ZM15.5833 5.375V3.375C14.4788 3.375 13.5833 4.27043 13.5833 5.375H15.5833ZM15.5833 8.54072V5.375H13.5833V8.54072H15.5833ZM12.9563 11.2209C13.3853 10.9098 13.8472 10.6418 14.3357 10.4231L13.5181 8.59778C12.9029 8.87336 12.3216 9.21069 11.7823 9.60175L12.9563 11.2209ZM7.95777 9.77761L10.7012 11.3615L11.7012 9.62946L8.95777 8.04556L7.95777 9.77761ZM7.95777 9.77761V9.77761L8.95777 8.04556C8.00119 7.49327 6.77801 7.82103 6.22572 8.77761L7.95777 9.77761ZM6.04111 13.0974L7.95777 9.77761L6.22572 8.77761L4.30906 12.0974L6.04111 13.0974ZM6.04111 13.0974L6.04111 13.0974L4.30906 12.0974C3.75677 13.054 4.08452 14.2771 5.04111 14.8294L6.04111 13.0974ZM8.78422 14.6811L6.04111 13.0974L5.04111 14.8294L7.78422 16.4132L8.78422 14.6811ZM9.75 17.5C9.75 17.2299 9.76378 16.9634 9.79061 16.701L7.80098 16.4975C7.76725 16.8274 7.75 17.1618 7.75 17.5H9.75ZM9.79061 18.299C9.76378 18.0366 9.75 17.7701 9.75 17.5H7.75C7.75 17.8381 7.76725 18.1726 7.80098 18.5025L9.79061 18.299ZM6.04111 21.9026L8.78422 20.3189L7.78422 18.5868L5.04111 20.1706L6.04111 21.9026ZM6.04111 21.9026H6.04111L5.04111 20.1706C4.08452 20.7228 3.75677 21.946 4.30906 22.9026L6.04111 21.9026ZM7.95777 25.2224L6.04111 21.9026L4.30906 22.9026L6.22572 26.2224L7.95777 25.2224ZM7.95777 25.2224L7.95777 25.2224L6.22572 26.2224C6.77801 27.179 8.00119 27.5067 8.95777 26.9544L7.95777 25.2224ZM10.7012 23.6385L7.95777 25.2224L8.95777 26.9544L11.7012 25.3705L10.7012 23.6385ZM14.3357 24.5769C13.8472 24.3582 13.3853 24.0902 12.9563 23.7791L11.7823 25.3982C12.3216 25.7893 12.9028 26.1266 13.5181 26.4022L14.3357 24.5769ZM15.5833 29.625V26.4593H13.5833V29.625H15.5833ZM15.5833 29.625H15.5833H13.5833C13.5833 30.7296 14.4788 31.625 15.5833 31.625V29.625ZM19.4167 29.625H15.5833V31.625H19.4167V29.625ZM19.4167 29.625H19.4167V31.625C20.5212 31.625 21.4167 30.7296 21.4167 29.625H19.4167ZM19.4167 26.4593V29.625H21.4167V26.4593H19.4167ZM22.0437 23.7791C21.6147 24.0902 21.1528 24.3582 20.6643 24.5769L21.4819 26.4022C22.0972 26.1266 22.6784 25.7893 23.2177 25.3982L22.0437 23.7791ZM27.0422 25.2224L24.2988 23.6385L23.2988 25.3705L26.0422 26.9544L27.0422 25.2224ZM27.0422 25.2224L26.0422 26.9544C26.9988 27.5067 28.222 27.179 28.7743 26.2224L27.0422 25.2224ZM28.9589 21.9026L27.0422 25.2224L28.7743 26.2224L30.6909 22.9026L28.9589 21.9026ZM28.9589 21.9026L30.6909 22.9026C31.2432 21.946 30.9155 20.7228 29.9589 20.1706L28.9589 21.9026ZM26.2158 20.3189L28.9589 21.9026L29.9589 20.1706L27.2158 18.5868L26.2158 20.3189ZM25.25 17.5C25.25 17.7701 25.2362 18.0366 25.2094 18.299L27.199 18.5025C27.2327 18.1726 27.25 17.8381 27.25 17.5H25.25ZM25.2094 16.701C25.2362 16.9634 25.25 17.2299 25.25 17.5H27.25C27.25 17.1618 27.2327 16.8274 27.199 16.4975L25.2094 16.701ZM28.9589 13.0974L26.2158 14.6811L27.2158 16.4132L29.9589 14.8294L28.9589 13.0974ZM28.9589 13.0974H28.9589L29.9589 14.8294C30.9155 14.2771 31.2432 13.054 30.6909 12.0974L28.9589 13.0974ZM27.0422 9.77761L28.9589 13.0974L30.6909 12.0974L28.7743 8.77761L27.0422 9.77761ZM27.0422 9.77761V9.77761L28.7743 8.77761C28.222 7.82103 26.9988 7.49327 26.0422 8.04556L27.0422 9.77761ZM24.2988 11.3615L27.0422 9.77761L26.0422 8.04556L23.2988 9.62946L24.2988 11.3615ZM20.6643 10.4231C21.1528 10.6418 21.6147 10.9098 22.0437 11.2209L23.2177 9.60175C22.6784 9.21069 22.0972 8.87336 21.4819 8.59778L20.6643 10.4231ZM19.4167 5.375V8.54072H21.4167V5.375H19.4167ZM19.4167 5.375H19.4167H21.4167C21.4167 4.27043 20.5212 3.375 19.4167 3.375V5.375ZM15.5833 5.375H19.4167V3.375H15.5833V5.375ZM21.4819 8.59778C21.452 8.58441 21.4326 8.56563 21.423 8.55166C21.4146 8.53956 21.4167 8.53649 21.4167 8.54072H19.4167C19.4167 9.40382 19.9609 10.108 20.6643 10.4231L21.4819 8.59778ZM23.2988 9.62946C23.3025 9.62736 23.3009 9.63064 23.2864 9.62947C23.2696 9.62812 23.2439 9.62075 23.2177 9.60175L22.0437 11.2209C22.6686 11.674 23.5512 11.7931 24.2988 11.3615L23.2988 9.62946ZM27.199 16.4975C27.1957 16.4653 27.2022 16.4392 27.2095 16.424C27.2157 16.4108 27.2194 16.4111 27.2158 16.4132L26.2158 14.6811C25.4692 15.1122 25.131 15.9345 25.2094 16.701L27.199 16.4975ZM23.2177 25.3982C23.2439 25.3792 23.2697 25.3719 23.2864 25.3705C23.3009 25.3693 23.3025 25.3726 23.2988 25.3705L24.2988 23.6385C23.5512 23.2069 22.6686 23.326 22.0437 23.7791L23.2177 25.3982ZM27.2158 18.5868C27.2194 18.5889 27.2157 18.5891 27.2095 18.576C27.2022 18.5608 27.1957 18.5347 27.199 18.5025L25.2094 18.299C25.131 19.0655 25.4692 19.8878 26.2158 20.3189L27.2158 18.5868ZM13.5181 26.4022C13.548 26.4156 13.5674 26.4344 13.577 26.4483C13.5854 26.4604 13.5833 26.4635 13.5833 26.4593H15.5833C15.5833 25.5962 15.0391 24.892 14.3357 24.5769L13.5181 26.4022ZM11.7012 25.3705C11.6975 25.3726 11.6991 25.3693 11.7136 25.3705C11.7303 25.3719 11.7561 25.3792 11.7823 25.3982L12.9563 23.7791C12.3314 23.326 11.4488 23.2068 10.7012 23.6385L11.7012 25.3705ZM21.4167 26.4593C21.4167 26.4635 21.4146 26.4604 21.423 26.4483C21.4326 26.4344 21.452 26.4156 21.4819 26.4022L20.6643 24.5769C19.9609 24.892 19.4167 25.5962 19.4167 26.4593H21.4167ZM7.80098 18.5025C7.80428 18.5347 7.79777 18.5608 7.79054 18.576C7.78427 18.5891 7.7806 18.5889 7.78422 18.5868L8.78422 20.3189C9.53082 19.8878 9.86899 19.0655 9.79061 18.299L7.80098 18.5025ZM7.78422 16.4132C7.7806 16.4111 7.78427 16.4108 7.79054 16.424C7.79777 16.4392 7.80429 16.4653 7.80098 16.4975L9.79061 16.701C9.86899 15.9345 9.53082 15.1122 8.78422 14.6811L7.78422 16.4132ZM11.7823 9.60175C11.7561 9.62075 11.7304 9.62812 11.7136 9.62947C11.6991 9.63065 11.6975 9.62737 11.7012 9.62946L10.7012 11.3615C11.4488 11.7931 12.3314 11.674 12.9563 11.2209L11.7823 9.60175ZM13.5833 8.54072C13.5833 8.53649 13.5854 8.53956 13.577 8.55166C13.5674 8.56563 13.548 8.58441 13.5181 8.59778L14.3357 10.4231C15.0391 10.108 15.5833 9.40382 15.5833 8.54072H13.5833Z" fill="white"/>
<circle cx="17.5" cy="17.5" r="4.375" stroke="white" stroke-width="2" stroke-linecap="round" stroke-linejoin="round"/>
</svg>
